<?xml version="1.0" encoding="utf-8"?>
<!-- Generator: Adobe Illustrator 24.0.0, SVG Export Plug-In . SVG Version: 6.00 Build 0)  -->
<svg version="1.1" id="Layer_1" xmlns="http://www.w3.org/2000/svg" xmlns:xlink="http://www.w3.org/1999/xlink" x="0px" y="0px"
	 viewBox="0 0 512 512" style="enable-background:new 0 0 512 512;" xml:space="preserve">
<style type="text/css">
	.st0{fill:url(#SVGID_1_);}
	.st1{fill:url(#SVGID_2_);}
</style>
<g>
	<g>
		<radialGradient id="SVGID_1_" cx="256" cy="254.3215" r="102.3498" gradientUnits="userSpaceOnUse">
			<stop  offset="4.475343e-07" style="stop-color:#EACF15;stop-opacity:0"/>
			<stop  offset="1" style="stop-color:#D08F40"/>
		</radialGradient>
		<path class="st0" d="M256,152c-56.4,0-102.4,45.9-102.4,102.3S199.6,356.7,256,356.7s102.4-45.9,102.4-102.4S312.4,152,256,152z"
			/>
	</g>
</g>
<g>
	<g>
		<radialGradient id="SVGID_2_" cx="257.4329" cy="258.0828" r="251.6233" gradientUnits="userSpaceOnUse">
			<stop  offset="0" style="stop-color:#E38731;stop-opacity:0"/>
			<stop  offset="0.6285" style="stop-color:#FFCA68;stop-opacity:0.93"/>
			<stop  offset="1" style="stop-color:#AA7100"/>
		</radialGradient>
		<path class="st1" d="M488.7,192.2h-15.1c-4.9-16.3-11.4-32.4-19-46.6l11.2-11.4c8.7-8.8,8.7-23.1-0.1-31.8l-57.6-57.9
			c-4.2-4.2-10-7-15.9-7c0,0-0.1,0-0.1,0c-6,0-11.8,2.8-16,7.2l-10.4,11c-14.1-7.7-29.5-14.1-45.1-18.8V22.5
			C320.6,10.1,310.5,0,298,0H214c-12.4,0-22.5,10.1-22.5,22.5v14.3c-15.8,4.8-31.1,11-45.2,18.7l-10.7-11c-4.2-4.3-10-7-16-7
			c0,0,0,0-0.1,0c-6,0-11.7,2.7-15.9,6.9l-57.4,57.9c-8.7,8.7-8.8,22.9-0.1,31.7l11.4,11.6c-7.6,14.2-14.1,30.2-19,46.6H23.3
			c-12.4,0-22.5,10.1-22.5,22.5v82.6c0,12.4,10.1,22.5,22.5,22.5h15.2c4.7,15.5,11.1,30.7,18.7,44.8L46.5,375
			c-4.3,4.2-6.8,10-6.8,16s2.4,11.8,6.6,16.1l57.6,57.3c4.3,4.3,10.1,6.6,16.1,6.6c6-0.1,11.8-2.5,16-6.9l10.4-10.7
			c14,7.5,29.3,13.9,45.1,18.6v17.4c0,12.4,10.1,22.5,22.5,22.5H298c12.4,0,22.5-10.1,22.5-22.5V472c15.8-4.8,31.1-11,45.2-18.6
			l10.7,11c4.2,4.3,10,7.1,16,7.1c0,0,0,0,0.1,0c6,0,11.7-2.7,15.9-7l57.4-58c4.3-4.3,6.7-10.1,6.6-16.2c-0.1-6.1-2.6-11.8-7-16
			l-10.5-10c7.5-13.9,13.9-29.1,18.6-44.5h15.1c12.4,0,22.5-10.1,22.5-22.5v-82.6C511.2,202.3,501.2,192.2,488.7,192.2z M256,394.2
			c-77.1,0-139.9-62.8-139.9-139.9c0-77.1,62.8-139.9,139.9-139.9s139.9,62.8,139.9,139.9C395.9,331.5,333.1,394.2,256,394.2z"/>
	</g>
</g>
</svg>
