<?xml version="1.0" encoding="utf-8"?>
<!-- Generator: Adobe Illustrator 24.0.0, SVG Export Plug-In . SVG Version: 6.00 Build 0)  -->
<svg version="1.1" xmlns="http://www.w3.org/2000/svg" xmlns:xlink="http://www.w3.org/1999/xlink" x="0px" y="0px"
	 viewBox="0 0 1000 1000" style="enable-background:new 0 0 1000 1000;" xml:space="preserve">
<style type="text/css">
	.st0{fill:url(#SVGID_1_);}
	.st1{fill:url(#SVGID_2_);}
	.st2{fill:url(#SVGID_3_);}
</style>
<g id="first_x5F_gear">
	<g>
		<linearGradient id="SVGID_1_" gradientUnits="userSpaceOnUse" x1="5.9529" y1="290.0721" x2="512.083" y2="290.0721">
			<stop  offset="0" style="stop-color:#E5E2DF"/>
			<stop  offset="0" style="stop-color:#EDE3D0"/>
			<stop  offset="0" style="stop-color:#FFE6B1"/>
			<stop  offset="5.840058e-02" style="stop-color:#FFF2CD"/>
			<stop  offset="0.1067" style="stop-color:#FFFDE7"/>
			<stop  offset="0.1215" style="stop-color:#FDF8DD"/>
			<stop  offset="0.1464" style="stop-color:#F6EBC3"/>
			<stop  offset="0.1784" style="stop-color:#ECD598"/>
			<stop  offset="0.2158" style="stop-color:#DDB75E"/>
			<stop  offset="0.2472" style="stop-color:#D09B27"/>
			<stop  offset="0.2977" style="stop-color:#D19E29"/>
			<stop  offset="0.328" style="stop-color:#D5A62F"/>
			<stop  offset="0.3531" style="stop-color:#DBB438"/>
			<stop  offset="0.3752" style="stop-color:#E5C846"/>
			<stop  offset="0.3953" style="stop-color:#F0E258"/>
			<stop  offset="0.3989" style="stop-color:#F3E85C"/>
			<stop  offset="0.4355" style="stop-color:#E9DF5D"/>
			<stop  offset="0.4971" style="stop-color:#CFC65E"/>
			<stop  offset="0.5757" style="stop-color:#A59E60"/>
			<stop  offset="0.6461" style="stop-color:#797563"/>
			<stop  offset="0.6958" style="stop-color:#6F7E64"/>
			<stop  offset="0.7416" style="stop-color:#628A66"/>
			<stop  offset="0.7446" style="stop-color:#5D8767"/>
			<stop  offset="0.7682" style="stop-color:#3C766D"/>
			<stop  offset="0.7925" style="stop-color:#216872"/>
			<stop  offset="0.8172" style="stop-color:#0F5E75"/>
			<stop  offset="0.8429" style="stop-color:#045877"/>
			<stop  offset="0.8708" style="stop-color:#005678"/>
			<stop  offset="0.8714" style="stop-color:#02577A"/>
			<stop  offset="0.8839" style="stop-color:#1F719B"/>
			<stop  offset="0.8967" style="stop-color:#3685B6"/>
			<stop  offset="0.9099" style="stop-color:#4794C8"/>
			<stop  offset="0.9234" style="stop-color:#519CD3"/>
			<stop  offset="0.9382" style="stop-color:#549FD7"/>
			<stop  offset="0.9413" style="stop-color:#5FA5DA"/>
			<stop  offset="0.9523" style="stop-color:#80B8E3"/>
			<stop  offset="0.9636" style="stop-color:#9BC6E9"/>
			<stop  offset="0.9751" style="stop-color:#ADD1EE"/>
			<stop  offset="0.987" style="stop-color:#B8D7F1"/>
			<stop  offset="1" style="stop-color:#BCD9F2"/>
		</linearGradient>
		<path class="st0" d="M508.7,293.9c1.9-0.5,3.4-1.6,3.4-2.3c0,0,0,0,0-0.7c0-4.4-0.2-9.5-0.2-9.5c-0.1-1.9-1.7-4-3.5-4.5
			l-53.8-15.9c-1.9-0.5-3.8-2.5-4.3-4.4l-21.5-60.4c-0.8-1.8-0.5-4.4,0.7-6l33.5-43.5c1.2-1.5,1.2-4.1,0.1-5.6l-6.2-8.1
			c-1.2-1.5-3.7-2.2-5.5-1.6l-53.1,18.9c-1.8,0.6-4.5,0.2-6-1.1l-48.9-33.6c-1.7-1-3-3.3-3-5.3l1.5-55.2c0.1-1.9-1.4-4-3.2-4.6
			l-11.8-3.6c-1.9-0.5-4.3,0.3-5.4,1.9l-31.8,46.5c-1.1,1.6-3.6,2.7-5.5,2.5c0,0-15.4-1.7-25.1-1.7c-11.7,0-30.8,2.5-30.8,2.5
			c-1.9,0.3-4.4-0.8-5.5-2.4l-31.5-45.9c-1.1-1.6-3.5-2.4-5.4-1.9l-12.7,4.2c-1.8,0.6-3.3,2.8-3.2,4.7l1.5,55.9
			c0.1,1.9-1.3,4.3-2.9,5.3L124.2,151c-1.5,1.3-4.2,1.8-6,1.1l-52.8-18.8c-1.8-0.6-4.3,0.1-5.5,1.6L52,145.5
			c-1.1,1.6-1.1,4.1,0.1,5.7l33.8,43.9c1.2,1.5,1.5,4.2,0.7,6L68,254.8c-0.5,1.9-2.4,3.9-4.3,4.4l-54,15.9c-1.9,0.5-3.4,2.6-3.5,4.5
			c0,0-0.3,6.4-0.3,11.4c0,1.3,0,1.3,0,1.3c0,1.4,1.5,3,3.4,3.5l52.8,15.6c1.9,0.5,3.7,2.5,4.1,4.4l17.1,58.5
			c0.7,1.8,0.3,4.5-0.9,6.1l-34.3,44.6c-1.2,1.5-1.3,4.1-0.2,5.7l5.3,7.7c1.1,1.6,3.5,2.3,5.4,1.7l51.7-18.4
			c1.8-0.6,4.5-0.1,5.9,1.2l52.1,40c1.6,1,2.9,3.5,2.9,5.4l-1.5,56c-0.1,1.9,1.4,4.1,3.2,4.7l6.8,2.4c1.8,0.6,4.2-0.2,5.3-1.8
			l31.1-45.4c1.1-1.6,3.6-2.7,5.5-2.3c0,0,23.4,3.8,37.4,3.8c12.1,0,31.9-2.7,31.9-2.7c1.9-0.3,4.4,0.8,5.5,2.4l31.4,45.8
			c1.1,1.6,3.5,2.4,5.4,1.9l5.8-1.8c1.8-0.6,3.3-2.7,3.2-4.6l-1.5-55.2c-0.1-1.9,1.3-4.3,2.9-5.3l56.6-41.5c1.4-1.3,4.1-1.8,5.9-1.2
			l51.9,18.5c1.8,0.6,4.2-0.1,5.4-1.7l3.7-5.2c1.1-1.6,1-4.1-0.1-5.7l-34-44.1c-1.2-1.5-1.5-4.2-0.8-6l19.8-65.3
			c0.4-1.9,2.2-3.9,4.1-4.4L508.7,293.9z M259,415.8c-69.4,0-125.7-56.3-125.7-125.7S189.6,164.4,259,164.4s125.7,56.3,125.7,125.7
			S328.5,415.8,259,415.8z"/>
	</g>
</g>
<g id="second_x5F_gear">
	<g id="Layer_4">
		<g>
			<linearGradient id="SVGID_2_" gradientUnits="userSpaceOnUse" x1="458.173" y1="684.0757" x2="992.2945" y2="684.0757">
				<stop  offset="0" style="stop-color:#E5E2DF"/>
				<stop  offset="0" style="stop-color:#EDE3D0"/>
				<stop  offset="0" style="stop-color:#FFE6B1"/>
				<stop  offset="5.840058e-02" style="stop-color:#FFF2CD"/>
				<stop  offset="0.1067" style="stop-color:#FFFDE7"/>
				<stop  offset="0.1215" style="stop-color:#FDF8DD"/>
				<stop  offset="0.1464" style="stop-color:#F6EBC3"/>
				<stop  offset="0.1784" style="stop-color:#ECD598"/>
				<stop  offset="0.2158" style="stop-color:#DDB75E"/>
				<stop  offset="0.2472" style="stop-color:#D09B27"/>
				<stop  offset="0.2977" style="stop-color:#D19E29"/>
				<stop  offset="0.328" style="stop-color:#D5A62F"/>
				<stop  offset="0.3531" style="stop-color:#DBB438"/>
				<stop  offset="0.3752" style="stop-color:#E5C846"/>
				<stop  offset="0.3953" style="stop-color:#F0E258"/>
				<stop  offset="0.3989" style="stop-color:#F3E85C"/>
				<stop  offset="0.4355" style="stop-color:#E9DF5D"/>
				<stop  offset="0.4971" style="stop-color:#CFC65E"/>
				<stop  offset="0.5757" style="stop-color:#A59E60"/>
				<stop  offset="0.6461" style="stop-color:#797563"/>
				<stop  offset="0.6958" style="stop-color:#6F7E64"/>
				<stop  offset="0.7416" style="stop-color:#628A66"/>
				<stop  offset="0.7446" style="stop-color:#5D8767"/>
				<stop  offset="0.7682" style="stop-color:#3C766D"/>
				<stop  offset="0.7925" style="stop-color:#216872"/>
				<stop  offset="0.8172" style="stop-color:#0F5E75"/>
				<stop  offset="0.8429" style="stop-color:#045877"/>
				<stop  offset="0.8708" style="stop-color:#005678"/>
				<stop  offset="0.8714" style="stop-color:#02577A"/>
				<stop  offset="0.8839" style="stop-color:#1F719B"/>
				<stop  offset="0.8967" style="stop-color:#3685B6"/>
				<stop  offset="0.9099" style="stop-color:#4794C8"/>
				<stop  offset="0.9234" style="stop-color:#519CD3"/>
				<stop  offset="0.9382" style="stop-color:#549FD7"/>
				<stop  offset="0.9413" style="stop-color:#5FA5DA"/>
				<stop  offset="0.9523" style="stop-color:#80B8E3"/>
				<stop  offset="0.9636" style="stop-color:#9BC6E9"/>
				<stop  offset="0.9751" style="stop-color:#ADD1EE"/>
				<stop  offset="0.987" style="stop-color:#B8D7F1"/>
				<stop  offset="1" style="stop-color:#BCD9F2"/>
			</linearGradient>
			<path class="st1" d="M916.8,661.6c-0.6-5.1-1.4-10.1-2.3-15.1c46.4-17,69-31.7,69-31.7l-4.2-13l-4.2-13c0,0-26.9,1.4-74.4,14.9
				c-2.1-4.7-4.5-9.2-6.9-13.6c38.8-30.5,55.8-51.4,55.8-51.4l-8-11.1l-8-11.1c0,0-25.1,9.6-66.1,37.1c-3.5-3.8-7.1-7.4-10.8-10.9
				c27.5-40.9,37.1-66,37.1-66l-11.1-8l-11.1-8c0,0-20.9,16.9-51.3,55.6c-4.5-2.5-9-4.9-13.7-7c13.4-47.3,14.8-74.2,14.8-74.2
				l-13-4.2l-13-4.2c0,0-14.6,22.5-31.6,68.7c-5-1-10.1-1.8-15.2-2.4c-1.8-49.2-8.8-75.1-8.8-75.1H726h-13.7c0,0-7,25.9-8.8,75.1
				c-5.1,0.6-10.2,1.4-15.2,2.4c-16.9-46.2-31.6-68.7-31.6-68.7l-13,4.2l-13,4.2c0,0,1.4,26.8,14.8,74.2c-4.7,2.2-9.2,4.5-13.7,7
				c-30.4-38.7-51.3-55.6-51.3-55.6l-11.1,8l-11.1,8c0,0,9.6,25.1,37.1,66c-3.8,3.5-7.4,7.1-10.8,10.9c-41-27.5-66.1-37.1-66.1-37.1
				l-8,11.1l-8,11.1c0,0,16.9,20.9,55.8,51.4c-2.6,4.6-4.9,9.2-7.1,14c-48.3-13.9-75.7-15.3-75.7-15.3l-4.2,13l-4.2,13
				c0,0,23.1,15,70.4,32.2c-0.9,4.8-1.7,9.6-2.2,14.5c-50.4,1.7-77,8.9-77,8.9v13.7v13.7c0,0,26.6,7.1,77.1,8.9
				c0.6,4.9,1.3,9.7,2.3,14.4c-47.5,17.2-70.6,32.3-70.6,32.3l4.2,13l4.2,13c0,0,27.5-1.4,76.1-15.4c2.2,4.7,4.6,9.4,7.1,13.9
				c-39,30.6-56.1,51.6-56.1,51.6l8,11.1l8,11.1c0,0,25.3-9.7,66.5-37.4c3.4,3.7,7,7.3,10.7,10.7c-27.7,41.2-37.4,66.6-37.4,66.6
				l11.1,8l11.1,8c0,0,21.1-17.1,51.7-56.2c4.4,2.5,8.9,4.7,13.4,6.8c-13.6,47.8-15.1,74.9-15.1,74.9l13,4.2l13,4.2
				c0,0,14.8-22.8,31.9-69.5c4.9,1,9.9,1.7,14.9,2.3c1.8,49.7,8.8,76,8.8,76H726h13.7c0,0,7-26.2,8.8-76c5-0.6,10-1.4,14.9-2.3
				c17.1,46.7,31.9,69.5,31.9,69.5l13-4.2l13-4.2c0,0-1.4-27.1-15.1-74.9c4.6-2.1,9.1-4.4,13.4-6.8c30.7,39.1,51.7,56.2,51.7,56.2
				l11.1-8l11.1-8c0,0-9.7-25.3-37.4-66.6c3.7-3.4,7.3-7,10.7-10.7c41.2,27.7,66.5,37.4,66.5,37.4l8-11.1l8-11.1
				c0,0-17-21-56.1-51.6c2.5-4.4,4.8-8.9,6.9-13.5c47.7,13.6,74.7,15,74.7,15l4.2-13l4.2-13c0,0-22.7-14.7-69.2-31.7
				c1-4.9,1.8-9.9,2.4-15c49.5-1.8,75.6-8.8,75.6-8.8v-13.7v-13.7C992.3,670.4,966.2,663.4,916.8,661.6z M725.2,811.8
				c-70.5,0-127.7-57.2-127.7-127.7s57.2-127.7,127.7-127.7s127.7,57.2,127.7,127.7S795.8,811.8,725.2,811.8z"/>
			<linearGradient id="SVGID_3_" gradientUnits="userSpaceOnUse" x1="626.5756" y1="684.0757" x2="823.892" y2="684.0757">
				<stop  offset="0" style="stop-color:#E5E2DF"/>
				<stop  offset="0" style="stop-color:#EDE3D0"/>
				<stop  offset="0" style="stop-color:#FFE6B1"/>
				<stop  offset="5.840058e-02" style="stop-color:#FFF2CD"/>
				<stop  offset="0.1067" style="stop-color:#FFFDE7"/>
				<stop  offset="0.1215" style="stop-color:#FDF8DD"/>
				<stop  offset="0.1464" style="stop-color:#F6EBC3"/>
				<stop  offset="0.1784" style="stop-color:#ECD598"/>
				<stop  offset="0.2158" style="stop-color:#DDB75E"/>
				<stop  offset="0.2472" style="stop-color:#D09B27"/>
				<stop  offset="0.2977" style="stop-color:#D19E29"/>
				<stop  offset="0.328" style="stop-color:#D5A62F"/>
				<stop  offset="0.3531" style="stop-color:#DBB438"/>
				<stop  offset="0.3752" style="stop-color:#E5C846"/>
				<stop  offset="0.3953" style="stop-color:#F0E258"/>
				<stop  offset="0.3989" style="stop-color:#F3E85C"/>
				<stop  offset="0.4355" style="stop-color:#E9DF5D"/>
				<stop  offset="0.4971" style="stop-color:#CFC65E"/>
				<stop  offset="0.5757" style="stop-color:#A59E60"/>
				<stop  offset="0.6461" style="stop-color:#797563"/>
				<stop  offset="0.6958" style="stop-color:#6F7E64"/>
				<stop  offset="0.7416" style="stop-color:#628A66"/>
				<stop  offset="0.7446" style="stop-color:#5D8767"/>
				<stop  offset="0.7682" style="stop-color:#3C766D"/>
				<stop  offset="0.7925" style="stop-color:#216872"/>
				<stop  offset="0.8172" style="stop-color:#0F5E75"/>
				<stop  offset="0.8429" style="stop-color:#045877"/>
				<stop  offset="0.8708" style="stop-color:#005678"/>
				<stop  offset="0.8714" style="stop-color:#02577A"/>
				<stop  offset="0.8839" style="stop-color:#1F719B"/>
				<stop  offset="0.8967" style="stop-color:#3685B6"/>
				<stop  offset="0.9099" style="stop-color:#4794C8"/>
				<stop  offset="0.9234" style="stop-color:#519CD3"/>
				<stop  offset="0.9382" style="stop-color:#549FD7"/>
				<stop  offset="0.9413" style="stop-color:#5FA5DA"/>
				<stop  offset="0.9523" style="stop-color:#80B8E3"/>
				<stop  offset="0.9636" style="stop-color:#9BC6E9"/>
				<stop  offset="0.9751" style="stop-color:#ADD1EE"/>
				<stop  offset="0.987" style="stop-color:#B8D7F1"/>
				<stop  offset="1" style="stop-color:#BCD9F2"/>
			</linearGradient>
			<circle class="st2" cx="725.2" cy="684.1" r="98.7"/>
		</g>
	</g>
</g>
</svg>
