<?xml version="1.0" encoding="utf-8"?>
<!-- Generator: Adobe Illustrator 24.0.0, SVG Export Plug-In . SVG Version: 6.00 Build 0)  -->
<svg version="1.1" xmlns="http://www.w3.org/2000/svg" xmlns:xlink="http://www.w3.org/1999/xlink" x="0px" y="0px"
	 viewBox="0 0 1000 1000" style="enable-background:new 0 0 1000 1000;" xml:space="preserve">
<style type="text/css">
	.st0{display:none;}
	.st1{display:inline;}
	.st2{fill:url(#SVGID_1_);}
	.st3{fill:url(#SVGID_2_);}
	.st4{fill:url(#SVGID_3_);}
</style>
<g id="first_x5F_gear" class="st0">
	<g class="st1">
		<linearGradient id="SVGID_1_" gradientUnits="userSpaceOnUse" x1="2.4074" y1="499.9556" x2="997.5927" y2="499.9556">
			<stop  offset="5.618000e-03" style="stop-color:#EBC17D"/>
			<stop  offset="0.1854" style="stop-color:#DFB77C"/>
			<stop  offset="0.5955" style="stop-color:#C08329"/>
			<stop  offset="0.8708" style="stop-color:#EABE81"/>
			<stop  offset="1" style="stop-color:#EEDCC3"/>
		</linearGradient>
		<path class="st2" d="M990.9,507.5c3.6-1.1,6.6-3.1,6.7-4.5c0,0,0,0,0-1.3c0-8.6-0.4-18.7-0.4-18.7c-0.1-3.8-3.2-7.8-6.9-8.9
			L884.5,443c-3.6-1.1-7.4-5-8.4-8.7l-42.3-118.7c-1.6-3.4-1-8.7,1.3-11.7l65.9-85.6c2.3-3,2.4-8,0.1-11l-12.2-15.9
			c-2.4-3-7.2-4.4-10.8-3.1l-104.4,37.1c-3.6,1.3-8.9,0.3-11.9-2.1l-96.2-66.1c-3.3-1.9-5.9-6.5-5.8-10.3l3-108.6
			c0.1-3.8-2.8-7.9-6.4-9.1l-23.1-7c-3.7-1-8.4,0.7-10.6,3.8l-62.6,91.3c-2.2,3.1-7,5.4-10.8,4.9c0,0-30.3-3.4-49.4-3.4
			c-23,0-60.5,5-60.5,5c-3.8,0.5-8.6-1.7-10.8-4.8l-61.9-90.3c-2.2-3.1-6.9-4.8-10.5-3.7l-25,8.3c-3.6,1.3-6.4,5.4-6.3,9.2l3,110
			c0.1,3.8-2.5,8.5-5.7,10.5l-87.5,63.2c-2.9,2.5-8.2,3.4-11.8,2.2l-103.9-37c-3.6-1.3-8.4,0.1-10.8,3.1l-15.5,20.8
			c-2.2,3.1-2.1,8.1,0.2,11.1l66.5,86.4c2.3,3,3,8.3,1.4,11.8l-36.6,105.6c-1,3.7-4.7,7.6-8.4,8.7L9.9,470.5
			c-3.6,1.1-6.8,5.1-6.9,8.9c0,0-0.6,12.5-0.6,22.4c0,2.5,0,2.5,0,2.5c0,2.7,3,5.9,6.7,6.9L113,541.8c3.6,1.1,7.3,5,8,8.7l33.7,115
			c1.4,3.5,0.6,8.9-1.7,11.9l-67.5,87.7c-2.3,3-2.5,8.1-0.4,11.2l10.5,15.2c2.2,3.1,7,4.6,10.5,3.3l101.7-36.2
			c3.6-1.3,8.8-0.2,11.6,2.4l102.4,78.7c3.2,2,5.8,6.8,5.7,10.6l-3,110.1c-0.1,3.8,2.7,8,6.3,9.3l13.4,4.6c3.6,1.2,8.3-0.4,10.5-3.5
			l61.1-89.2c2.2-3.1,7-5.2,10.7-4.6c0,0,46,7.4,73.5,7.4c23.7,0,62.7-5.4,62.7-5.4c3.8-0.5,8.6,1.6,10.8,4.8l61.7,90.1
			c2.2,3.1,6.9,4.8,10.5,3.7L657,974c3.6-1.2,6.5-5.3,6.4-9.1l-3-108.6c-0.1-3.8,2.5-8.5,5.8-10.4l111.4-81.5
			c2.8-2.5,8.1-3.6,11.7-2.3l102.1,36.3c3.6,1.3,8.4-0.2,10.6-3.3l7.2-10.2c2.2-3.1,2-8.2-0.3-11.2L842.1,687c-2.3-3-3-8.4-1.6-11.9
			l38.9-128.4c0.8-3.7,4.4-7.7,8-8.7L990.9,507.5z M500,747.2c-136.5,0-247.2-110.7-247.2-247.2S363.5,252.8,500,252.8
			S747.2,363.5,747.2,500S636.5,747.2,500,747.2z"/>
	</g>
</g>
<g id="second_x5F_gear">
	<g>
		<linearGradient id="SVGID_2_" gradientUnits="userSpaceOnUse" x1="2.2284" y1="500" x2="997.7715" y2="500">
			<stop  offset="5.618000e-03" style="stop-color:#EBC17D"/>
			<stop  offset="0.1854" style="stop-color:#DFB77C"/>
			<stop  offset="0.5955" style="stop-color:#C08329"/>
			<stop  offset="0.8708" style="stop-color:#EABE81"/>
			<stop  offset="1" style="stop-color:#EEDCC3"/>
		</linearGradient>
		<path class="st3" d="M857.1,458.1c-1.1-9.5-2.5-18.9-4.3-28.1c86.5-31.7,128.6-59.1,128.6-59.1l-7.9-24.3l-7.9-24.3
			c0,0-50.1,2.6-138.6,27.8c-4-8.7-8.3-17.1-12.9-25.4c72.4-56.8,103.9-95.8,103.9-95.8l-15-20.6l-15-20.6c0,0-46.8,18-123.1,69.2
			c-6.5-7-13.2-13.8-20.2-20.2c51.2-76.3,69.2-123.1,69.2-123.1l-20.6-15l-20.6-15c0,0-38.9,31.5-95.6,103.7
			c-8.3-4.7-16.8-9.1-25.5-13.1c25.1-88.2,27.7-138.2,27.7-138.2l-24.3-7.9l-24.3-7.9c0,0-27.3,42-58.8,128
			c-9.3-1.9-18.8-3.4-28.3-4.5c-3.4-91.7-16.4-140-16.4-140h-25.5h-25.5c0,0-13,48.3-16.4,140c-9.6,1.1-19,2.6-28.3,4.5
			c-31.6-86.1-58.8-128-58.8-128L348,27.9l-24.3,7.9c0,0,2.6,50,27.7,138.2c-8.7,4-17.2,8.4-25.5,13.1
			c-56.7-72.2-95.6-103.7-95.6-103.7l-20.6,15l-20.6,15c0,0,17.9,46.8,69.2,123.1c-7,6.5-13.7,13.2-20.2,20.3
			c-76.3-51.2-123.1-69.2-123.1-69.2l-15,20.6l-15,20.6c0,0,31.6,39,103.9,95.8c-4.8,8.5-9.2,17.2-13.3,26.2
			C85.5,325,34.4,322.3,34.4,322.3l-7.9,24.3l-7.9,24.3c0,0,43,27.9,131.3,60c-1.7,8.9-3.1,17.9-4.1,27
			c-94,3.2-143.6,16.5-143.6,16.5V500v25.5c0,0,49.6,13.3,143.7,16.5c1.1,9.1,2.5,18.1,4.3,26.9c-88.5,32.1-131.6,60.1-131.6,60.1
			l7.9,24.3l7.9,24.3c0,0,51.3-2.7,141.8-28.7c4.1,8.8,8.5,17.4,13.2,25.9c-72.8,57-104.5,96.3-104.5,96.3l15,20.6l15,20.6
			c0,0,47.2-18.1,124-69.8c6.4,6.9,13,13.5,19.9,19.9C207.1,839.4,189,886.5,189,886.5l20.6,15l20.6,15c0,0,39.3-31.8,96.4-104.8
			c8.2,4.6,16.5,8.8,25.1,12.8c-25.4,89.1-28.1,139.6-28.1,139.6l24.3,7.9l24.3,7.9c0,0,27.6-42.4,59.4-129.5
			c9.1,1.8,18.4,3.3,27.7,4.3c3.3,92.7,16.5,141.6,16.5,141.6h25.5h25.5c0,0,13.1-48.9,16.5-141.6c9.4-1.1,18.6-2.5,27.7-4.3
			c31.8,87.1,59.4,129.5,59.4,129.5l24.3-7.9l24.3-7.9c0,0-2.6-50.5-28.1-139.6c8.5-3.9,16.9-8.2,25.1-12.8
			c57.1,73,96.4,104.8,96.4,104.8l20.6-15l20.6-15c0,0-18.1-47.2-69.8-124.1c6.9-6.4,13.5-13,19.9-19.9c76.9,51.7,124,69.8,124,69.8
			l15-20.6l15-20.6c0,0-31.7-39.2-104.5-96.3c4.6-8.2,8.9-16.6,12.9-25.1c88.9,25.3,139.2,28,139.2,28l7.9-24.3l7.9-24.3
			c0,0-42.2-27.4-128.9-59.2c1.8-9.2,3.3-18.5,4.5-28c92.2-3.4,140.9-16.4,140.9-16.4V500v-25.5
			C997.8,474.5,949.2,461.4,857.1,458.1z M500,738c-131.4,0-238-106.6-238-238s106.6-238,238-238s238,106.6,238,238
			S631.4,738,500,738z"/>
		<linearGradient id="SVGID_3_" gradientUnits="userSpaceOnUse" x1="316.112" y1="499.9999" x2="683.888" y2="499.9999">
			<stop  offset="5.618000e-03" style="stop-color:#EBC17D"/>
			<stop  offset="0.1854" style="stop-color:#DFB77C"/>
			<stop  offset="0.5955" style="stop-color:#C08329"/>
			<stop  offset="0.8708" style="stop-color:#EABE81"/>
			<stop  offset="1" style="stop-color:#EEDCC3"/>
		</linearGradient>
		<circle class="st4" cx="500" cy="500" r="183.9"/>
	</g>
</g>
</svg>
