<?xml version="1.0" encoding="utf-8"?>
<!-- Generator: Adobe Illustrator 24.0.0, SVG Export Plug-In . SVG Version: 6.00 Build 0)  -->
<svg version="1.1" xmlns="http://www.w3.org/2000/svg" xmlns:xlink="http://www.w3.org/1999/xlink" x="0px" y="0px"
	 viewBox="0 0 1000 1000" style="enable-background:new 0 0 1000 1000;" xml:space="preserve">
<style type="text/css">
	.st0{fill:url(#SVGID_1_);}
	.st1{fill:url(#SVGID_2_);}
	.st2{fill:url(#SVGID_3_);}
</style>
<g id="first_x5F_gear">
	<g>
		<linearGradient id="SVGID_1_" gradientUnits="userSpaceOnUse" x1="9.5514" y1="252.5841" x2="522.8934" y2="252.5841">
			<stop  offset="5.618000e-03" style="stop-color:#401617"/>
			<stop  offset="8.427000e-02" style="stop-color:#6B4C2D"/>
			<stop  offset="0.382" style="stop-color:#A58A55"/>
			<stop  offset="0.5618" style="stop-color:#E5D4B5"/>
			<stop  offset="0.7973" style="stop-color:#987A59"/>
			<stop  offset="0.8034" style="stop-color:#967857"/>
			<stop  offset="0.9551" style="stop-color:#814F2F"/>
		</linearGradient>
		<path class="st0" d="M519.5,256.5c1.9-0.6,3.4-1.6,3.4-2.3c0,0,0,0,0-0.7c0-4.4-0.2-9.6-0.2-9.6c-0.1-2-1.7-4-3.6-4.6l-54.6-16.1
			c-1.9-0.6-3.8-2.6-4.3-4.5l-21.8-61.2c-0.8-1.8-0.5-4.5,0.7-6.1l34-44.1c1.2-1.6,1.2-4.1,0.1-5.7l-6.3-8.2
			c-1.2-1.5-3.7-2.3-5.6-1.6L407.4,111c-1.8,0.7-4.6,0.2-6.1-1.1l-49.6-34.1c-1.7-1-3.1-3.4-3-5.3l1.5-56c0.1-2-1.4-4.1-3.3-4.7
			L335,6.2c-1.9-0.5-4.3,0.4-5.4,2l-32.3,47.1c-1.1,1.6-3.6,2.8-5.6,2.5c0,0-15.6-1.7-25.5-1.7c-11.9,0-31.2,2.6-31.2,2.6
			c-1.9,0.3-4.4-0.9-5.6-2.5L197.6,9.6c-1.1-1.6-3.6-2.5-5.4-1.9L179.2,12c-1.9,0.7-3.3,2.8-3.3,4.8l1.6,56.7c0.1,2-1.3,4.4-2.9,5.4
			l-45.1,32.6c-1.5,1.3-4.2,1.8-6.1,1.1L69.8,93.6c-1.8-0.7-4.3,0.1-5.5,1.6l-8,10.7c-1.1,1.6-1.1,4.2,0.1,5.7l34.3,44.6
			c1.2,1.6,1.5,4.3,0.7,6.1l-18.9,54.5c-0.5,1.9-2.4,3.9-4.3,4.5l-54.8,16.1c-1.9,0.6-3.5,2.6-3.6,4.6c0,0-0.3,6.5-0.3,11.5
			c0,1.3,0,1.3,0,1.3c0,1.4,1.6,3,3.5,3.6l53.6,15.8c1.9,0.6,3.7,2.6,4.1,4.5L88.1,338c0.7,1.8,0.3,4.6-0.9,6.1l-34.8,45.2
			c-1.2,1.6-1.3,4.2-0.2,5.8l5.4,7.8c1.1,1.6,3.6,2.4,5.4,1.7l52.5-18.7c1.8-0.7,4.5-0.1,6,1.2l52.8,40.6c1.7,1,3,3.5,2.9,5.5
			l-1.6,56.8c-0.1,2,1.4,4.1,3.3,4.8l6.9,2.4c1.9,0.6,4.3-0.2,5.4-1.8l31.5-46c1.1-1.6,3.6-2.7,5.5-2.4c0,0,23.7,3.8,37.9,3.8
			c12.2,0,32.3-2.8,32.3-2.8c1.9-0.3,4.4,0.8,5.6,2.5l31.8,46.5c1.1,1.6,3.6,2.5,5.4,1.9l5.8-1.9c1.9-0.6,3.3-2.7,3.3-4.7l-1.6-56
			c-0.1-2,1.3-4.4,3-5.4l57.4-42c1.5-1.3,4.2-1.8,6-1.2l52.7,18.7c1.8,0.7,4.3-0.1,5.5-1.7l3.7-5.2c1.1-1.6,1.1-4.2-0.1-5.8
			l-34.4-44.7c-1.2-1.6-1.6-4.3-0.8-6.1l20.1-66.2c0.4-1.9,2.2-4,4.1-4.5L519.5,256.5z M266.2,380.1c-70.4,0-127.5-57.1-127.5-127.5
			s57.1-127.5,127.5-127.5s127.5,57.1,127.5,127.5S336.7,380.1,266.2,380.1z"/>
	</g>
</g>
<g id="second_x5F_gear">
	<g>
		<linearGradient id="SVGID_2_" gradientUnits="userSpaceOnUse" x1="354.6208" y1="676.6439" x2="995.861" y2="676.6439">
			<stop  offset="5.618000e-03" style="stop-color:#401617"/>
			<stop  offset="8.427000e-02" style="stop-color:#6B4C2D"/>
			<stop  offset="0.382" style="stop-color:#A58A55"/>
			<stop  offset="0.5618" style="stop-color:#E5D4B5"/>
			<stop  offset="0.7973" style="stop-color:#987A59"/>
			<stop  offset="0.8034" style="stop-color:#967857"/>
			<stop  offset="0.9551" style="stop-color:#814F2F"/>
		</linearGradient>
		<path class="st1" d="M905.2,649.6c-0.7-6.1-1.6-12.1-2.8-18.1c55.7-20.4,82.9-38,82.9-38l-5.1-15.6l-5.1-15.6
			c0,0-32.3,1.7-89.3,17.9c-2.6-5.6-5.4-11-8.3-16.4c46.6-36.6,66.9-61.7,66.9-61.7l-9.7-13.3l-9.7-13.3c0,0-30.1,11.6-79.3,44.6
			c-4.2-4.5-8.5-8.9-13-13c33-49.1,44.5-79.3,44.5-79.3l-13.3-9.7l-13.3-9.7c0,0-25.1,20.3-61.6,66.8c-5.4-3-10.8-5.8-16.4-8.4
			c16.1-56.8,17.8-89,17.8-89l-15.6-5.1l-15.6-5.1c0,0-17.6,27-37.9,82.5c-6-1.2-12.1-2.2-18.3-2.9c-2.2-59-10.6-90.2-10.6-90.2
			h-16.4h-16.4c0,0-8.3,31.1-10.6,90.2c-6.2,0.7-12.3,1.7-18.3,2.9c-20.3-55.5-37.9-82.5-37.9-82.5l-15.6,5.1l-15.6,5.1
			c0,0,1.7,32.2,17.8,89c-5.6,2.6-11.1,5.4-16.4,8.4c-36.5-46.5-61.6-66.8-61.6-66.8l-13.3,9.7l-13.3,9.7c0,0,11.6,30.1,44.5,79.3
			c-4.5,4.2-8.8,8.5-13,13c-49.2-33-79.3-44.6-79.3-44.6l-9.7,13.3l-9.7,13.3c0,0,20.3,25.1,66.9,61.7c-3.1,5.5-5.9,11.1-8.5,16.8
			c-58-16.6-90.9-18.4-90.9-18.4l-5.1,15.6l-5.1,15.6c0,0,27.7,18,84.6,38.7c-1.1,5.7-2,11.5-2.7,17.4
			c-60.5,2.1-92.5,10.6-92.5,10.6v16.4v16.4c0,0,32,8.6,92.6,10.6c0.7,5.8,1.6,11.6,2.7,17.3c-57,20.7-84.8,38.7-84.8,38.7l5.1,15.6
			l5.1,15.6c0,0,33-1.7,91.3-18.5c2.6,5.7,5.5,11.2,8.5,16.7c-46.9,36.7-67.3,62-67.3,62l9.7,13.3l9.7,13.3c0,0,30.4-11.7,79.9-44.9
			c4.1,4.4,8.4,8.7,12.8,12.8c-33.3,49.5-45,79.9-45,79.9l13.3,9.7l13.3,9.7c0,0,25.3-20.5,62.1-67.5c5.3,2.9,10.6,5.7,16.1,8.2
			c-16.4,57.4-18.1,89.9-18.1,89.9l15.6,5.1l15.6,5.1c0,0,17.8-27.3,38.2-83.4c5.9,1.2,11.8,2.1,17.9,2.8
			c2.2,59.7,10.6,91.2,10.6,91.2h16.4h16.4c0,0,8.4-31.5,10.6-91.2c6-0.7,12-1.6,17.9-2.8c20.5,56.1,38.2,83.4,38.2,83.4l15.6-5.1
			l15.6-5.1c0,0-1.7-32.5-18.1-89.9c5.5-2.5,10.9-5.3,16.1-8.2c36.8,47,62.1,67.5,62.1,67.5l13.3-9.7l13.3-9.7
			c0,0-11.7-30.4-45-79.9c4.4-4.1,8.7-8.4,12.8-12.8c49.5,33.3,79.9,44.9,79.9,44.9l9.7-13.3l9.7-13.3c0,0-20.4-25.3-67.3-62
			c3-5.3,5.7-10.7,8.3-16.2c57.3,16.3,89.7,18,89.7,18l5.1-15.6l5.1-15.6c0,0-27.2-17.7-83-38.1c1.2-5.9,2.1-11.9,2.9-18
			c59.4-2.2,90.7-10.6,90.7-10.6v-16.4v-16.4C995.9,660.2,964.6,651.8,905.2,649.6z M675.2,829.9c-84.7,0-153.3-68.6-153.3-153.3
			s68.6-153.3,153.3-153.3S828.5,592,828.5,676.6S759.9,829.9,675.2,829.9z"/>
		<linearGradient id="SVGID_3_" gradientUnits="userSpaceOnUse" x1="556.7966" y1="676.6438" x2="793.6852" y2="676.6438">
			<stop  offset="5.618000e-03" style="stop-color:#401617"/>
			<stop  offset="8.427000e-02" style="stop-color:#6B4C2D"/>
			<stop  offset="0.382" style="stop-color:#A58A55"/>
			<stop  offset="0.5618" style="stop-color:#E5D4B5"/>
			<stop  offset="0.7973" style="stop-color:#987A59"/>
			<stop  offset="0.8034" style="stop-color:#967857"/>
			<stop  offset="0.9551" style="stop-color:#814F2F"/>
		</linearGradient>
		<circle class="st2" cx="675.2" cy="676.6" r="118.4"/>
	</g>
</g>
</svg>
