<?xml version="1.0" encoding="utf-8"?>
<!-- Generator: Adobe Illustrator 24.0.0, SVG Export Plug-In . SVG Version: 6.00 Build 0)  -->
<svg version="1.1" xmlns="http://www.w3.org/2000/svg" xmlns:xlink="http://www.w3.org/1999/xlink" x="0px" y="0px"
	 viewBox="0 0 1000 1000" style="enable-background:new 0 0 1000 1000;" xml:space="preserve">
<style type="text/css">
	.st0{fill:url(#SVGID_1_);}
	.st1{display:none;}
	.st2{display:inline;fill:url(#SVGID_2_);}
	.st3{display:inline;fill:url(#SVGID_3_);}
</style>
<g id="first_x5F_gear">
	<g>
		<linearGradient id="SVGID_1_" gradientUnits="userSpaceOnUse" x1="2.4074" y1="499.9556" x2="997.5927" y2="499.9556">
			<stop  offset="0" style="stop-color:#E5E2DF"/>
			<stop  offset="0" style="stop-color:#EDE3D0"/>
			<stop  offset="0" style="stop-color:#FFE6B1"/>
			<stop  offset="5.840058e-02" style="stop-color:#FFF2CD"/>
			<stop  offset="0.1067" style="stop-color:#FFFDE7"/>
			<stop  offset="0.1215" style="stop-color:#FDF8DD"/>
			<stop  offset="0.1464" style="stop-color:#F6EBC3"/>
			<stop  offset="0.1784" style="stop-color:#ECD598"/>
			<stop  offset="0.2158" style="stop-color:#DDB75E"/>
			<stop  offset="0.2472" style="stop-color:#D09B27"/>
			<stop  offset="0.2977" style="stop-color:#D19E29"/>
			<stop  offset="0.328" style="stop-color:#D5A62F"/>
			<stop  offset="0.3531" style="stop-color:#DBB438"/>
			<stop  offset="0.3752" style="stop-color:#E5C846"/>
			<stop  offset="0.3953" style="stop-color:#F0E258"/>
			<stop  offset="0.3989" style="stop-color:#F3E85C"/>
			<stop  offset="0.4355" style="stop-color:#E9DF5D"/>
			<stop  offset="0.4971" style="stop-color:#CFC65E"/>
			<stop  offset="0.5757" style="stop-color:#A59E60"/>
			<stop  offset="0.6461" style="stop-color:#797563"/>
			<stop  offset="0.6958" style="stop-color:#6F7E64"/>
			<stop  offset="0.7416" style="stop-color:#628A66"/>
			<stop  offset="0.7446" style="stop-color:#5D8767"/>
			<stop  offset="0.7682" style="stop-color:#3C766D"/>
			<stop  offset="0.7925" style="stop-color:#216872"/>
			<stop  offset="0.8172" style="stop-color:#0F5E75"/>
			<stop  offset="0.8429" style="stop-color:#045877"/>
			<stop  offset="0.8708" style="stop-color:#005678"/>
			<stop  offset="0.8714" style="stop-color:#02577A"/>
			<stop  offset="0.8839" style="stop-color:#1F719B"/>
			<stop  offset="0.8967" style="stop-color:#3685B6"/>
			<stop  offset="0.9099" style="stop-color:#4794C8"/>
			<stop  offset="0.9234" style="stop-color:#519CD3"/>
			<stop  offset="0.9382" style="stop-color:#549FD7"/>
			<stop  offset="0.9413" style="stop-color:#5FA5DA"/>
			<stop  offset="0.9523" style="stop-color:#80B8E3"/>
			<stop  offset="0.9636" style="stop-color:#9BC6E9"/>
			<stop  offset="0.9751" style="stop-color:#ADD1EE"/>
			<stop  offset="0.987" style="stop-color:#B8D7F1"/>
			<stop  offset="1" style="stop-color:#BCD9F2"/>
		</linearGradient>
		<path class="st0" d="M990.9,507.5c3.6-1.1,6.6-3.1,6.7-4.5c0,0,0,0,0-1.3c0-8.6-0.4-18.7-0.4-18.7c-0.1-3.8-3.2-7.8-6.9-8.9
			L884.5,443c-3.6-1.1-7.4-5-8.4-8.7l-42.3-118.7c-1.6-3.4-1-8.7,1.3-11.7l65.9-85.6c2.3-3,2.4-8,0.1-11l-12.2-15.9
			c-2.4-3-7.2-4.4-10.8-3.1l-104.4,37.1c-3.6,1.3-8.9,0.3-11.9-2.1l-96.2-66.1c-3.3-1.9-5.9-6.5-5.8-10.3l3-108.6
			c0.1-3.8-2.8-7.9-6.4-9.1l-23.1-7c-3.7-1-8.4,0.7-10.6,3.8l-62.6,91.3c-2.2,3.1-7,5.4-10.8,4.9c0,0-30.3-3.4-49.4-3.4
			c-23,0-60.5,5-60.5,5c-3.8,0.5-8.6-1.7-10.8-4.8l-61.9-90.3c-2.2-3.1-6.9-4.8-10.5-3.7l-25,8.3c-3.6,1.3-6.4,5.4-6.3,9.2l3,110
			c0.1,3.8-2.5,8.5-5.7,10.5l-87.5,63.2c-2.9,2.5-8.2,3.4-11.8,2.2l-103.9-37c-3.6-1.3-8.4,0.1-10.8,3.1l-15.5,20.8
			c-2.2,3.1-2.1,8.1,0.2,11.1l66.5,86.4c2.3,3,3,8.3,1.4,11.8l-36.6,105.6c-1,3.7-4.7,7.6-8.4,8.7L9.9,470.5
			c-3.6,1.1-6.8,5.1-6.9,8.9c0,0-0.6,12.5-0.6,22.4c0,2.5,0,2.5,0,2.5c0,2.7,3,5.9,6.7,6.9L113,541.8c3.6,1.1,7.3,5,8,8.7l33.7,115
			c1.4,3.5,0.6,8.9-1.7,11.9l-67.5,87.7c-2.3,3-2.5,8.1-0.4,11.2l10.5,15.2c2.2,3.1,7,4.6,10.5,3.3l101.7-36.2
			c3.6-1.3,8.8-0.2,11.6,2.4l102.4,78.7c3.2,2,5.8,6.8,5.7,10.6l-3,110.1c-0.1,3.8,2.7,8,6.3,9.3l13.4,4.6c3.6,1.2,8.3-0.4,10.5-3.5
			l61.1-89.2c2.2-3.1,7-5.2,10.7-4.6c0,0,46,7.4,73.5,7.4c23.7,0,62.7-5.4,62.7-5.4c3.8-0.5,8.6,1.6,10.8,4.8l61.7,90.1
			c2.2,3.1,6.9,4.8,10.5,3.7L657,974c3.6-1.2,6.5-5.3,6.4-9.1l-3-108.6c-0.1-3.8,2.5-8.5,5.8-10.4l111.4-81.5
			c2.8-2.5,8.1-3.6,11.7-2.3l102.1,36.3c3.6,1.3,8.4-0.2,10.6-3.3l7.2-10.2c2.2-3.1,2-8.2-0.3-11.2L842.1,687c-2.3-3-3-8.4-1.6-11.9
			l38.9-128.4c0.8-3.7,4.4-7.7,8-8.7L990.9,507.5z M500,747.2c-136.5,0-247.2-110.7-247.2-247.2S363.5,252.8,500,252.8
			S747.2,363.5,747.2,500S636.5,747.2,500,747.2z"/>
	</g>
</g>
<g id="second_x5F_gear" class="st1">
	<linearGradient id="SVGID_2_" gradientUnits="userSpaceOnUse" x1="426.6791" y1="594.8962" x2="823.6279" y2="594.8962">
		<stop  offset="0" style="stop-color:#E5E2DF"/>
		<stop  offset="0" style="stop-color:#EDE3D0"/>
		<stop  offset="0" style="stop-color:#FFE6B1"/>
		<stop  offset="5.840058e-02" style="stop-color:#FFF2CD"/>
		<stop  offset="0.1067" style="stop-color:#FFFDE7"/>
		<stop  offset="0.1215" style="stop-color:#FDF8DD"/>
		<stop  offset="0.1464" style="stop-color:#F6EBC3"/>
		<stop  offset="0.1784" style="stop-color:#ECD598"/>
		<stop  offset="0.2158" style="stop-color:#DDB75E"/>
		<stop  offset="0.2472" style="stop-color:#D09B27"/>
		<stop  offset="0.2977" style="stop-color:#D19E29"/>
		<stop  offset="0.328" style="stop-color:#D5A62F"/>
		<stop  offset="0.3531" style="stop-color:#DBB438"/>
		<stop  offset="0.3752" style="stop-color:#E5C846"/>
		<stop  offset="0.3953" style="stop-color:#F0E258"/>
		<stop  offset="0.3989" style="stop-color:#F3E85C"/>
		<stop  offset="0.4355" style="stop-color:#E9DF5D"/>
		<stop  offset="0.4971" style="stop-color:#CFC65E"/>
		<stop  offset="0.5757" style="stop-color:#A59E60"/>
		<stop  offset="0.6461" style="stop-color:#797563"/>
		<stop  offset="0.6958" style="stop-color:#6F7E64"/>
		<stop  offset="0.7416" style="stop-color:#628A66"/>
		<stop  offset="0.7446" style="stop-color:#5D8767"/>
		<stop  offset="0.7682" style="stop-color:#3C766D"/>
		<stop  offset="0.7925" style="stop-color:#216872"/>
		<stop  offset="0.8172" style="stop-color:#0F5E75"/>
		<stop  offset="0.8429" style="stop-color:#045877"/>
		<stop  offset="0.8708" style="stop-color:#005678"/>
		<stop  offset="0.8714" style="stop-color:#02577A"/>
		<stop  offset="0.8839" style="stop-color:#1F719B"/>
		<stop  offset="0.8967" style="stop-color:#3685B6"/>
		<stop  offset="0.9099" style="stop-color:#4794C8"/>
		<stop  offset="0.9234" style="stop-color:#519CD3"/>
		<stop  offset="0.9382" style="stop-color:#549FD7"/>
		<stop  offset="0.9413" style="stop-color:#5FA5DA"/>
		<stop  offset="0.9523" style="stop-color:#80B8E3"/>
		<stop  offset="0.9636" style="stop-color:#9BC6E9"/>
		<stop  offset="0.9751" style="stop-color:#ADD1EE"/>
		<stop  offset="0.987" style="stop-color:#B8D7F1"/>
		<stop  offset="1" style="stop-color:#BCD9F2"/>
	</linearGradient>
	<path class="st2" d="M767.5,578.2c-0.4-3.8-1-7.5-1.7-11.2c34.5-12.6,51.3-23.5,51.3-23.5l-3.1-9.7l-3.1-9.7c0,0-20,1-55.3,11.1
		c-1.6-3.5-3.3-6.8-5.2-10.1c28.8-22.6,41.4-38.2,41.4-38.2l-6-8.2l-6-8.2c0,0-18.7,7.2-49.1,27.6c-2.6-2.8-5.3-5.5-8-8.1
		c20.4-30.4,27.6-49.1,27.6-49.1l-8.2-6l-8.2-6c0,0-15.5,12.6-38.1,41.3c-3.3-1.9-6.7-3.6-10.2-5.2c10-35.2,11-55.1,11-55.1
		l-9.7-3.1l-9.7-3.1c0,0-10.9,16.7-23.5,51.1c-3.7-0.7-7.5-1.3-11.3-1.8c-1.4-36.5-6.5-55.8-6.5-55.8h-10.2h-10.2
		c0,0-5.2,19.3-6.5,55.8c-3.8,0.4-7.6,1-11.3,1.8c-12.6-34.3-23.5-51.1-23.5-51.1l-9.7,3.1l-9.7,3.1c0,0,1,19.9,11,55.1
		c-3.5,1.6-6.9,3.3-10.2,5.2c-22.6-28.8-38.1-41.3-38.1-41.3l-8.2,6l-8.2,6c0,0,7.2,18.7,27.6,49.1c-2.8,2.6-5.5,5.3-8,8.1
		c-30.4-20.4-49.1-27.6-49.1-27.6l-6,8.2l-6,8.2c0,0,12.6,15.6,41.4,38.2c-1.9,3.4-3.7,6.9-5.3,10.4c-35.9-10.3-56.3-11.4-56.3-11.4
		l-3.1,9.7l-3.1,9.7c0,0,17.1,11.1,52.4,23.9c-0.7,3.5-1.2,7.1-1.7,10.8c-37.5,1.3-57.2,6.6-57.2,6.6v10.2v10.2
		c0,0,19.8,5.3,57.3,6.6c0.4,3.6,1,7.2,1.7,10.7c-35.3,12.8-52.5,24-52.5,24l3.1,9.7l3.1,9.7c0,0,20.5-1.1,56.5-11.4
		c1.6,3.5,3.4,7,5.3,10.3c-29,22.7-41.7,38.4-41.7,38.4l6,8.2l6,8.2c0,0,18.8-7.2,49.5-27.8c2.5,2.7,5.2,5.4,7.9,7.9
		c-20.6,30.7-27.8,49.5-27.8,49.5l8.2,6l8.2,6c0,0,15.7-12.7,38.5-41.8c3.3,1.8,6.6,3.5,10,5.1c-10.1,35.5-11.2,55.7-11.2,55.7
		l9.7,3.1l9.7,3.1c0,0,11-16.9,23.7-51.6c3.6,0.7,7.3,1.3,11.1,1.7c1.3,37,6.6,56.5,6.6,56.5h10.2h10.2c0,0,5.2-19.5,6.6-56.5
		c3.7-0.4,7.4-1,11.1-1.7c12.7,34.7,23.7,51.6,23.7,51.6l9.7-3.1l9.7-3.1c0,0-1-20.1-11.2-55.7c3.4-1.6,6.7-3.3,10-5.1
		c22.8,29.1,38.5,41.8,38.5,41.8l8.2-6l8.2-6c0,0-7.2-18.8-27.8-49.5c2.8-2.5,5.4-5.2,7.9-7.9c30.6,20.6,49.5,27.8,49.5,27.8l6-8.2
		l6-8.2c0,0-12.7-15.6-41.7-38.4c1.8-3.3,3.6-6.6,5.1-10c35.4,10.1,55.5,11.1,55.5,11.1l3.1-9.7l3.1-9.7c0,0-16.8-10.9-51.4-23.6
		c0.7-3.7,1.3-7.4,1.8-11.2c36.8-1.3,56.2-6.6,56.2-6.6v-10.2v-10.2C823.6,584.7,804.3,579.5,767.5,578.2z M625.2,689.8
		c-52.4,0-94.9-42.5-94.9-94.9s42.5-94.9,94.9-94.9s94.9,42.5,94.9,94.9S677.6,689.8,625.2,689.8z"/>
	<linearGradient id="SVGID_3_" gradientUnits="userSpaceOnUse" x1="551.8326" y1="594.8962" x2="698.4744" y2="594.8962">
		<stop  offset="0" style="stop-color:#E5E2DF"/>
		<stop  offset="0" style="stop-color:#EDE3D0"/>
		<stop  offset="0" style="stop-color:#FFE6B1"/>
		<stop  offset="5.840058e-02" style="stop-color:#FFF2CD"/>
		<stop  offset="0.1067" style="stop-color:#FFFDE7"/>
		<stop  offset="0.1215" style="stop-color:#FDF8DD"/>
		<stop  offset="0.1464" style="stop-color:#F6EBC3"/>
		<stop  offset="0.1784" style="stop-color:#ECD598"/>
		<stop  offset="0.2158" style="stop-color:#DDB75E"/>
		<stop  offset="0.2472" style="stop-color:#D09B27"/>
		<stop  offset="0.2977" style="stop-color:#D19E29"/>
		<stop  offset="0.328" style="stop-color:#D5A62F"/>
		<stop  offset="0.3531" style="stop-color:#DBB438"/>
		<stop  offset="0.3752" style="stop-color:#E5C846"/>
		<stop  offset="0.3953" style="stop-color:#F0E258"/>
		<stop  offset="0.3989" style="stop-color:#F3E85C"/>
		<stop  offset="0.4355" style="stop-color:#E9DF5D"/>
		<stop  offset="0.4971" style="stop-color:#CFC65E"/>
		<stop  offset="0.5757" style="stop-color:#A59E60"/>
		<stop  offset="0.6461" style="stop-color:#797563"/>
		<stop  offset="0.6958" style="stop-color:#6F7E64"/>
		<stop  offset="0.7416" style="stop-color:#628A66"/>
		<stop  offset="0.7446" style="stop-color:#5D8767"/>
		<stop  offset="0.7682" style="stop-color:#3C766D"/>
		<stop  offset="0.7925" style="stop-color:#216872"/>
		<stop  offset="0.8172" style="stop-color:#0F5E75"/>
		<stop  offset="0.8429" style="stop-color:#045877"/>
		<stop  offset="0.8708" style="stop-color:#005678"/>
		<stop  offset="0.8714" style="stop-color:#02577A"/>
		<stop  offset="0.8839" style="stop-color:#1F719B"/>
		<stop  offset="0.8967" style="stop-color:#3685B6"/>
		<stop  offset="0.9099" style="stop-color:#4794C8"/>
		<stop  offset="0.9234" style="stop-color:#519CD3"/>
		<stop  offset="0.9382" style="stop-color:#549FD7"/>
		<stop  offset="0.9413" style="stop-color:#5FA5DA"/>
		<stop  offset="0.9523" style="stop-color:#80B8E3"/>
		<stop  offset="0.9636" style="stop-color:#9BC6E9"/>
		<stop  offset="0.9751" style="stop-color:#ADD1EE"/>
		<stop  offset="0.987" style="stop-color:#B8D7F1"/>
		<stop  offset="1" style="stop-color:#BCD9F2"/>
	</linearGradient>
	<circle class="st3" cx="625.2" cy="594.9" r="73.3"/>
</g>
</svg>
